<svg xmlns="http://www.w3.org/2000/svg" width="19.579" height="20" viewBox="0 0 19.579 20"><path d="M302.855,236.112a.6.6,0,0,1,.631-.585h2.334a.607.607,0,0,1,.637.585.6.6,0,0,1-.637.585h-2.334A.6.6,0,0,1,302.855,236.112Zm0,6.7a.466.466,0,0,1,.474-.467h17.357a.467.467,0,1,1,0,.934H303.328A.462.462,0,0,1,302.855,242.811Zm1.276-3.261a.461.461,0,0,1,.473-.46h4.4a4.5,4.5,0,0,1-.953-2.761,4.586,4.586,0,1,1,9.172,0,4.458,4.458,0,0,1-.954,2.761h5.687a.464.464,0,1,1,0,.927H304.6A.462.462,0,0,1,304.131,239.55Zm0,6.522a.466.466,0,0,1,.473-.467h17.356a.467.467,0,1,1,0,.934H304.6A.466.466,0,0,1,304.131,246.072Zm1.624-15.8a.591.591,0,0,1-.033-.862.6.6,0,0,1,.861.033l1.65,1.644a.622.622,0,0,1,.04.868.609.609,0,0,1-.868-.033Zm4.918,8.823h3.945a3.366,3.366,0,0,0,1.453-2.761,3.425,3.425,0,0,0-6.851,0A3.366,3.366,0,0,0,310.672,239.09Zm1.387-9.586V227.17a.587.587,0,1,1,1.17,0V229.5a.612.612,0,0,1-.585.638A.6.6,0,0,1,312.06,229.5Zm5,1.578,1.644-1.644a.59.59,0,1,1,.835.829l-1.65,1.65a.615.615,0,0,1-.868.033A.6.6,0,0,1,317.056,231.082Zm1.768,5.03a.606.606,0,0,1,.645-.585H321.8a.587.587,0,1,1,0,1.17h-2.327A.614.614,0,0,1,318.825,236.112Z" transform="translate(-302.855 -226.539)" fill="#1c212b"/></svg>