<svg xmlns="http://www.w3.org/2000/svg" width="19.957" height="20" viewBox="0 0 19.957 20"><g transform="translate(0 0)"><path d="M304.391,188.362a.693.693,0,1,1,0,1.385H302.4a.693.693,0,1,1,0-1.385Zm1.643,5.375a.685.685,0,1,1,.969.969l-1.413,1.414a.693.693,0,0,1-.976-.983Zm-1.413-10.772a.692.692,0,0,1,.983-.976l1.414,1.428a.7.7,0,0,1-.015.975.688.688,0,0,1-.969,0Zm11.675,6.093a4.618,4.618,0,1,1-4.622-4.629A4.651,4.651,0,0,1,316.3,189.059Zm-8.03,0a3.409,3.409,0,1,0,3.408-3.416A3.43,3.43,0,0,0,308.266,189.059Zm4.112-7.313a.693.693,0,1,1-1.385,0v-2a.693.693,0,1,1,1.385,0Zm0,16.613a.693.693,0,1,1-1.385,0v-2a.693.693,0,0,1,1.385,0Zm5.4-16.369a.7.7,0,0,1,.976,0,.705.705,0,0,1,0,.983l-1.421,1.421a.693.693,0,0,1-.983-.975Zm.976,13.154a.693.693,0,0,1-.976.983l-1.428-1.421a.69.69,0,1,1,.976-.975Zm.23-5.4a.693.693,0,1,1,0-1.385h1.988a.693.693,0,1,1,0,1.385Z" transform="translate(-301.707 -179.055)" fill="#1c212b"/></g></svg>