<svg xmlns="http://www.w3.org/2000/svg" width="24.929" height="12.746"><path d="M12.234.042a.645.645 0 0 0-.229.147l-.101.108-.012 1.804c-.013 1.985-.013 1.985.239 2.115.156.081.511.081.667 0 .247-.127.248-.135.248-2.064C13.045.28 13.044.27 12.838.119c-.124-.092-.429-.131-.604-.077M5.667 3.209c-.299.262-.352.606-.131.841.108.114 2.306 1.42 2.927 1.74.3.154.587.035.767-.318.107-.21.084-.457-.055-.594-.09-.09-2.741-1.639-2.997-1.752-.196-.087-.345-.063-.511.083m13.214-.056c-.351.159-2.868 1.635-2.957 1.734-.199.22-.158.525.109.805.188.198.362.219.64.077.25-.127 2.597-1.479 2.776-1.599.284-.192.333-.459.144-.783-.178-.304-.398-.376-.712-.234M2.619 7.615c-.258.131-.366.52-.233.839.113.271.113.271 2.08.271 1.96 0 1.946.002 2.072-.264.139-.292.052-.668-.189-.815-.132-.081-.205-.084-1.883-.083-1.312 0-1.77.013-1.847.052m15.961.03c-.341.21-.331.874.015 1.032.075.034.627.048 1.88.048 1.676 0 1.781-.005 1.905-.08.267-.163.302-.69.061-.931l-.131-.131-1.796-.011c-1.744-.011-1.8-.009-1.934.073M.345 11.596a.499.499 0 0 0-.216.145c-.181.23-.145.723.065.887l.108.086h24.343l.117-.118c.23-.23.2-.75-.054-.938l-.117-.087-12.057-.007c-7.29-.004-12.109.009-12.189.032" fill-rule="evenodd"/></svg>