<svg xmlns="http://www.w3.org/2000/svg" width="23.163" height="15.057" viewBox="0 0 23.163 15.057">
  <g id="Group_542" data-name="Group 542" transform="translate(-695.133 -103.57)">
    <path id="Path_412" data-name="Path 412" d="M695.429,118.314a1.067,1.067,0,0,1-.3-.8,2.363,2.363,0,0,1,.037-.393,2.216,2.216,0,0,1,.114-.411l2.8-7.916a2.13,2.13,0,0,1,.64-1.016,1.584,1.584,0,0,1,1.018-.323,1.651,1.651,0,0,1,1.05.328,2.112,2.112,0,0,1,.656,1.011l2.8,7.916c.05.152.089.291.117.416a1.717,1.717,0,0,1,.042.388,1.056,1.056,0,0,1-.306.787,1.067,1.067,0,0,1-.786.3,1.05,1.05,0,0,1-.721-.237,1.59,1.59,0,0,1-.42-.794l-.585-1.9h-3.656l-.594,1.884a1.688,1.688,0,0,1-.42.8.972.972,0,0,1-.684.247A1.092,1.092,0,0,1,695.429,118.314Zm5.65-4.388-1.253-4.137h-.18l-1.234,4.137Zm5.24,4.369a1.218,1.218,0,0,1-.33-.9,2.568,2.568,0,0,1,.142-.792l4.024-11.547a1.945,1.945,0,0,1,1.978-1.488,2.074,2.074,0,0,1,1.277.372,2.273,2.273,0,0,1,.75,1.126l3.985,11.457a2.6,2.6,0,0,1,.151.843,1.226,1.226,0,0,1-.349.918,1.495,1.495,0,0,1-1.8.074,1.689,1.689,0,0,1-.476-.873l-.923-2.768h-5.25l-.923,2.768a1.75,1.75,0,0,1-.481.873,1.287,1.287,0,0,1-.867.267A1.222,1.222,0,0,1,706.319,118.3Zm7.85-5.679-2.007-6.268h-.056l-2.017,6.268Z" transform="translate(0 0)" fill="none"/>
  </g>
</svg>
