<svg xmlns="http://www.w3.org/2000/svg" width="19.11" height="20" viewBox="0 0 19.11 20"><path d="M301.707,332.876a8.36,8.36,0,0,1,4.86-7.791c.419-.179.725-.119.89.075a.729.729,0,0,1,.007.829,7.4,7.4,0,0,0-.538,2.939c0,4.336,2.789,7.035,7.155,7.035a7.522,7.522,0,0,0,2.743-.463.663.663,0,0,1,.74.067.753.753,0,0,1,.053.838,8.388,8.388,0,0,1-15.91-3.529Zm14.325,4a7.562,7.562,0,0,1-2.243.3c-4.845,0-8.075-3.133-8.075-7.918a7.705,7.705,0,0,1,.419-2.639,7.6,7.6,0,0,0-3.17,6.161,6.8,6.8,0,0,0,7.043,7.051A7.136,7.136,0,0,0,316.032,336.876Zm-3.619-11.3c-.292-1.615-.269-1.675-1.981-1.989a.167.167,0,0,1-.165-.172c0-.1.06-.157.165-.179,1.7-.344,1.689-.381,1.981-1.989.022-.1.075-.157.172-.157a.166.166,0,0,1,.172.157c.285,1.608.292,1.645,1.989,1.989a.173.173,0,0,1,.157.179.166.166,0,0,1-.157.172c-1.7.314-1.7.374-1.989,1.989a.165.165,0,0,1-.172.157C312.488,325.729,312.436,325.669,312.413,325.572Zm4.5,6.3c-.322-2.6-.4-2.624-3.08-3.073a.286.286,0,0,1,0-.568c2.684-.463,2.729-.471,3.08-3.065a.284.284,0,0,1,.284-.262.281.281,0,0,1,.285.269c.336,2.595.419,2.595,3.08,3.058a.291.291,0,0,1,.254.285c0,.164-.112.254-.284.284-2.639.449-2.714.471-3.05,3.058a.285.285,0,0,1-.568.015Z" transform="translate(-301.707 -321.086)" fill="#1c212b"/></svg>