<svg xmlns="http://www.w3.org/2000/svg" width="24.997" height="20" viewBox="0 0 24.997 20"><path d="M302.855,291.73a.7.7,0,0,1,.726-.665h7.6a5.126,5.126,0,0,1-1.1-3.175,5.272,5.272,0,1,1,10.544,0,5.13,5.13,0,0,1-1.1,3.175h7.6a.668.668,0,1,1,0,1.33H303.581A.705.705,0,0,1,302.855,291.73Zm1.247-4.089a.692.692,0,0,1,.726-.673h2.683a.7.7,0,0,1,.733.673.69.69,0,0,1-.733.673h-2.683A.692.692,0,0,1,304.1,287.641Zm3.333-6.72a.678.678,0,0,1-.038-.99.692.692,0,0,1,.991.038l1.9,1.889a.707.707,0,0,1,.038,1,.7.7,0,0,1-1-.037Zm5.646,10.144h4.543a3.884,3.884,0,0,0,1.663-3.175,3.934,3.934,0,1,0-7.869,0A3.884,3.884,0,0,0,313.082,291.065Zm1.814-11.134-3.053-2.895a.579.579,0,0,1-.212-.461.55.55,0,0,1,.575-.567.651.651,0,0,1,.446.2l1.4,1.413.726.817-.1-1.542v-3.764a.678.678,0,1,1,1.353,0v3.764l-.1,1.542.8-.892,1.323-1.338a.65.65,0,0,1,.446-.2.552.552,0,0,1,.582.567.587.587,0,0,1-.219.461l-3.054,2.895a.586.586,0,0,1-.915,0Zm5.526,1.927,1.9-1.889a.678.678,0,1,1,.96.952l-1.9,1.9a.681.681,0,1,1-.96-.96Zm2.041,5.783a.694.694,0,0,1,.733-.673h2.683a.675.675,0,1,1,0,1.345H323.2A.7.7,0,0,1,322.463,287.641Z" transform="translate(-302.855 -272.395)" fill="#1c212b"/></svg>