<svg id="Icons_Bottom-Bar_Prayer-Time" data-name="Icons/Bottom-Bar/Prayer-Time" xmlns="http://www.w3.org/2000/svg" width="27.998" height="26.442" viewBox="0 0 27.998 26.442">
  <path id="Path_270" data-name="Path 270" d="M1020.665,276.219a12.929,12.929,0,0,1-16.828.118c-.131.126-.266.249-.393.38q-1.186,1.215-2.369,2.433a.74.74,0,0,1-.786.208.714.714,0,0,1-.525-.584.748.748,0,0,1,.232-.692q.957-.979,1.91-1.962l.815-.84a12.423,12.423,0,0,1-3.112-10.753,12.164,12.164,0,0,1,4.508-7.564,12.879,12.879,0,0,1,16.67.457,12.538,12.538,0,0,1,.961,17.722c.364.362.721.718,1.079,1.073l1.891,1.87a.743.743,0,0,1,.239.589.71.71,0,0,1-.478.663.738.738,0,0,1-.828-.174c-.275-.265-.545-.536-.816-.8l-2.079-2.055C1020.729,276.277,1020.7,276.252,1020.665,276.219Zm-8.484,1.667a11.127,11.127,0,1,0-11.254-11.271A11.2,11.2,0,0,0,1012.181,277.886Z" transform="translate(-998.255 -252.954)" fill="none"/>
  <path id="Path_271" data-name="Path 271" d="M1075.682,255.112a5.213,5.213,0,0,1-.7,2.631.72.72,0,1,1-1.246-.721,3.8,3.8,0,0,0-3.416-5.674,3.731,3.731,0,0,0-1.765.484.724.724,0,0,1-1-.254.716.716,0,0,1,.282-.991,4.635,4.635,0,0,1,1.5-.563,5.165,5.165,0,0,1,5.409,2.151A4.927,4.927,0,0,1,1075.682,255.112Z" transform="translate(-1047.684 -249.815)" fill="none"/>
  <path id="Path_272" data-name="Path 272" d="M1000.138,249.507a5.5,5.5,0,0,1,2.528.674.718.718,0,1,1-.718,1.245,3.9,3.9,0,0,0-1.735-.457,3.8,3.8,0,0,0-3.49,5.489.722.722,0,1,1-1.295.635,5.231,5.231,0,0,1,3.683-7.456C999.45,249.572,999.8,249.549,1000.138,249.507Z" transform="translate(-994.879 -249.507)" fill="none"/>
  <path id="Path_273" data-name="Path 273" d="M1044.659,272.551q0-1.938,0-3.876a.722.722,0,1,1,1.444-.006q0,3.689,0,7.377a.3.3,0,0,0,.091.231q1.469,1.535,2.931,3.076a.72.72,0,1,1-1.066.968q-.705-.744-1.414-1.484-.875-.919-1.751-1.837a.8.8,0,0,1-.234-.586Q1044.66,274.482,1044.659,272.551Z" transform="translate(-1031.249 -262.621)" fill="none"/>
</svg>
