<svg xmlns="http://www.w3.org/2000/svg" width="22.377" height="19.661" viewBox="0 0 22.377 19.661">
  <g id="Group_550" data-name="Group 550" transform="translate(-306.17 -378)">
    <path id="Path_269" data-name="Path 269" d="M766.41,249.939a1.1,1.1,0,0,0-.825-.309h0a1.056,1.056,0,0,0-.341.076.678.678,0,0,0-.3-.421.661.661,0,0,0-.65-.037l-6.128,3-6.128-3a.66.66,0,0,0-.65.037.68.68,0,0,0-.3.421,1.061,1.061,0,0,0-.341-.076,1.1,1.1,0,0,0-.825.309,1.142,1.142,0,0,0-.347.82V260.5a.685.685,0,0,0,.379.612l2,.975-1.225,3.225a.77.77,0,0,0,.2.852.742.742,0,0,0,.858.1l4.131-2.239,1.355.662a2.012,2.012,0,0,0,1.777,0l1.418-.693,4.187,2.27a.742.742,0,0,0,.858-.1.77.77,0,0,0,.2-.852l-1.243-3.274,1.9-.926a.685.685,0,0,0,.379-.612v-9.738A1.143,1.143,0,0,0,766.41,249.939Zm-1.879.019v9.351a.312.312,0,0,1-.173.279l-5.823,2.846v-9.546Zm-12.723,0,4.432,2.166v5.657a.365.365,0,1,0,.731,0v-5.3l.834.407v9.546l-5.823-2.846a.312.312,0,0,1-.173-.279v-9.351Zm-.357,15.651a.021.021,0,0,1-.03,0,.022.022,0,0,1-.007-.029l1.2-3.169,2.492,1.218Zm13.593-.033a.022.022,0,0,1-.007.029.021.021,0,0,1-.029,0l-3.715-2.014,2.53-1.236Zm.982-5.119-7.285,3.56a1.293,1.293,0,0,1-1.143,0l-7.285-3.56v-9.7a.388.388,0,0,1,.119-.281.374.374,0,0,1,.284-.106.415.415,0,0,1,.361.43v8.507a1.059,1.059,0,0,0,.587.948l5.888,2.878a1.4,1.4,0,0,0,1.236,0l5.888-2.878a1.059,1.059,0,0,0,.587-.948V250.8a.415.415,0,0,1,.361-.43.374.374,0,0,1,.284.106.387.387,0,0,1,.119.281Z" transform="translate(-443.412 128.82)" fill="none"/>
    <g id="Icons_Settings" data-name="Icons/Settings" transform="translate(318.064 386.71)">
      <g id="Group_129" data-name="Group 129">
        <path id="Path_285" data-name="Path 285" d="M440.651,346.938c0,.161,0,.322,0,.484a.265.265,0,0,1-.234.293c-.263.045-.526.085-.791.11a4.966,4.966,0,0,1-.593.014,5.138,5.138,0,0,1-.989-.125.283.283,0,0,1-.231-.318c0-.314,0-.628,0-.942a.107.107,0,0,0-.085-.12,3.926,3.926,0,0,1-1.187-.69.1.1,0,0,0-.135-.01c-.22.13-.442.258-.663.386l-.185.105a.274.274,0,0,1-.363-.055,6.159,6.159,0,0,1-.6-.784,5.607,5.607,0,0,1-.581-1.234.288.288,0,0,1,.148-.4c.278-.159.555-.321.833-.479a.086.086,0,0,0,.053-.106,4.034,4.034,0,0,1-.052-.937c.008-.156.029-.312.052-.467a.1.1,0,0,0-.056-.113c-.262-.148-.522-.3-.783-.449l-.067-.039a.273.273,0,0,1-.137-.351,5.462,5.462,0,0,1,.962-1.79c.073-.088.146-.175.224-.258a.258.258,0,0,1,.364-.057q.427.241.848.492a.1.1,0,0,0,.13-.009,4.092,4.092,0,0,1,1.212-.7.086.086,0,0,0,.063-.1c0-.324,0-.649,0-.974a.281.281,0,0,1,.254-.311,6.241,6.241,0,0,1,1.075-.121,5.655,5.655,0,0,1,1.267.124.278.278,0,0,1,.245.3q0,.487,0,.974c0,.048.01.081.06.1a4.12,4.12,0,0,1,1.228.709.074.074,0,0,0,.1.007q.4-.235.81-.467c.024-.014.048-.028.073-.041a.256.256,0,0,1,.333.057,5.128,5.128,0,0,1,.611.8,5.344,5.344,0,0,1,.582,1.247.279.279,0,0,1-.142.37l-.86.5a.072.072,0,0,0-.039.083c.025.243.061.487.062.731a6.167,6.167,0,0,1-.059.692.088.088,0,0,0,.051.1c.269.153.537.308.806.461a.306.306,0,0,1,.171.436c-.02.059-.038.118-.06.177a5.469,5.469,0,0,1-.741,1.375c-.112.149-.233.292-.357.432a.269.269,0,0,1-.39.06c-.282-.162-.563-.323-.843-.488a.087.087,0,0,0-.119.01,4.044,4.044,0,0,1-1.223.706.077.077,0,0,0-.057.086C440.652,346.6,440.651,346.768,440.651,346.938Zm.335-4.577a1.756,1.756,0,1,0-3.513,0,1.756,1.756,0,1,0,3.513,0Z" transform="translate(-433.989 -336.89)" fill="none"/>
      </g>
    </g>
  </g>
</svg>
