<svg id="Icons_Bottom-Bar_Quran" data-name="Icons/Bottom-Bar/Quran" xmlns="http://www.w3.org/2000/svg" width="28" height="28" viewBox="0 0 28 28">
  <path id="Path_269" data-name="Path 269" d="M777.016,250.417a1.785,1.785,0,0,0-1.345-.5h0a1.72,1.72,0,0,0-.555.124,1.105,1.105,0,0,0-.484-.686,1.077,1.077,0,0,0-1.059-.061l-9.991,4.883-9.991-4.883a1.077,1.077,0,0,0-1.059.06,1.107,1.107,0,0,0-.483.686,1.73,1.73,0,0,0-.556-.124,1.785,1.785,0,0,0-1.346.5,1.862,1.862,0,0,0-.565,1.336v15.876a1.116,1.116,0,0,0,.618,1l3.254,1.59-2,5.257a1.255,1.255,0,0,0,.334,1.389,1.21,1.21,0,0,0,1.4.167l6.734-3.651,2.209,1.08a3.28,3.28,0,0,0,2.9,0l2.311-1.13,6.826,3.7a1.21,1.21,0,0,0,1.4-.167,1.254,1.254,0,0,0,.334-1.389l-2.027-5.337,3.09-1.51a1.116,1.116,0,0,0,.618-1V251.753A1.863,1.863,0,0,0,777.016,250.417Zm-3.063.031v15.245a.508.508,0,0,1-.282.455l-9.494,4.64V255.225Zm-20.743,0,7.225,3.531V263.2a.6.6,0,1,0,1.192,0v-8.64l1.359.664v15.563l-9.494-4.64a.508.508,0,0,1-.282-.455V250.447Zm-.582,25.516a.035.035,0,0,1-.048-.006.035.035,0,0,1-.011-.048l1.962-5.166,4.063,1.986Zm22.16-.053a.035.035,0,0,1-.012.048.034.034,0,0,1-.048.006l-6.057-3.284,4.124-2.016Zm1.6-8.345-11.876,5.8a2.108,2.108,0,0,1-1.864,0l-11.877-5.8V251.753a.632.632,0,0,1,.194-.459.61.61,0,0,1,.463-.173.676.676,0,0,1,.588.7v13.87a1.727,1.727,0,0,0,.956,1.545l9.6,4.691a2.282,2.282,0,0,0,2.016,0l9.6-4.691a1.726,1.726,0,0,0,.956-1.545v-13.87a.676.676,0,0,1,.589-.7.61.61,0,0,1,.463.173.63.63,0,0,1,.194.459Z" transform="translate(-749.582 -249.18)" fill="none"/>
</svg>
