<svg id="icon_Remote" data-name="icon/Remote" xmlns="http://www.w3.org/2000/svg" width="90.568" height="103.208" viewBox="0 0 90.568 103.208">
  <path id="Path_389" data-name="Path 389" d="M462.54,898.056H408.034a11.639,11.639,0,0,0-11.64,11.64v11.029H474.18V909.7A11.64,11.64,0,0,0,462.54,898.056Z" transform="translate(-396.394 -898.056)" fill="none"/>
  <path id="Path_390" data-name="Path 390" d="M475.788,946.857a7.893,7.893,0,0,0-4.14-1.12,7.809,7.809,0,0,0-4.124,1.12,8.528,8.528,0,0,0-2.957,2.973,8.248,8.248,0,0,0,0,8.248,8.409,8.409,0,0,0,2.957,2.957,7.9,7.9,0,0,0,4.124,1.105,7.984,7.984,0,0,0,4.14-1.105,8.37,8.37,0,0,0,2.972-2.957,8.248,8.248,0,0,0,0-8.248A8.488,8.488,0,0,0,475.788,946.857Zm-1.8,9.416a3.208,3.208,0,0,1-2.335.949,3.168,3.168,0,0,1-2.3-.949,3.269,3.269,0,0,1,0-4.638,3.168,3.168,0,0,1,2.3-.949,3.208,3.208,0,0,1,2.335.949,3.269,3.269,0,0,1,0,4.638Z" transform="translate(-396.394 -898.056)" fill="none"/>
  <path id="Path_391" data-name="Path 391" d="M476.41,965.844a3.33,3.33,0,0,0-2.443,1.011,3.4,3.4,0,0,0,0,4.84,3.355,3.355,0,0,0,2.443,1,3.321,3.321,0,0,0,2.413-1,3.431,3.431,0,0,0-2.413-5.851Z" transform="translate(-396.394 -898.056)" fill="none"/>
  <path id="Path_392" data-name="Path 392" d="M466.948,965.844a3.33,3.33,0,0,0-2.443,1.011,3.4,3.4,0,0,0,0,4.84,3.355,3.355,0,0,0,2.443,1,3.268,3.268,0,0,0,2.4-1,3.438,3.438,0,0,0,0-4.84A3.244,3.244,0,0,0,466.948,965.844Z" transform="translate(-396.394 -898.056)" fill="none"/>
  <path id="Path_393" data-name="Path 393" d="M479.927,935.621H463.369a7.149,7.149,0,0,0-5.136,1.805,6.427,6.427,0,0,0-1.9,4.887V994.6a6.387,6.387,0,0,0,1.9,4.856,7.149,7.149,0,0,0,5.136,1.8h16.558a7.148,7.148,0,0,0,5.136-1.8,6.388,6.388,0,0,0,1.9-4.856v-52.29a6.428,6.428,0,0,0-1.9-4.887A7.148,7.148,0,0,0,479.927,935.621Zm2.117,58.266a2.464,2.464,0,0,1-.716,1.868,2.767,2.767,0,0,1-1.992.684H463.96a2.767,2.767,0,0,1-1.992-.684,2.464,2.464,0,0,1-.716-1.868V943a2.411,2.411,0,0,1,.716-1.852,2.805,2.805,0,0,1,1.992-.669h15.376a2.805,2.805,0,0,1,1.992.669,2.411,2.411,0,0,1,.716,1.852Z" transform="translate(-396.394 -898.056)" fill="none"/>
  <path id="Path_394" data-name="Path 394" d="M451.547,938.262a6.977,6.977,0,0,1,2.494-5.647,10.187,10.187,0,0,1,6.747-2.086H474.18v-4.443H396.394V964.2a11.639,11.639,0,0,0,11.64,11.64h43.513Z" transform="translate(-396.394 -898.056)" fill="none"/>
</svg>
