<svg id="icon_Remote-connecting" data-name="icon/Remote-connecting" xmlns="http://www.w3.org/2000/svg" width="193.322" height="77.786" viewBox="0 0 193.322 77.786">
  <path id="Path_380" data-name="Path 380" d="M397.859,1126.034a11.64,11.64,0,0,0,11.64,11.64h54.506a11.64,11.64,0,0,0,11.641-11.64v-38.116H397.859Z" transform="translate(-282.324 -1059.888)" fill="none"/>
  <path id="Path_381" data-name="Path 381" d="M464.005,1059.888H409.5a11.64,11.64,0,0,0-11.64,11.64v11.029h77.787v-11.029A11.64,11.64,0,0,0,464.005,1059.888Z" transform="translate(-282.324 -1059.888)" fill="none"/>
  <path id="Path_382" data-name="Path 382" d="M301.777,1077.2a7.892,7.892,0,0,0-4.139-1.121,7.809,7.809,0,0,0-4.124,1.121,8.525,8.525,0,0,0-2.957,2.972,8.248,8.248,0,0,0,0,8.248,8.4,8.4,0,0,0,2.957,2.957,7.89,7.89,0,0,0,4.124,1.1,7.974,7.974,0,0,0,4.139-1.1,8.373,8.373,0,0,0,2.973-2.957,8.248,8.248,0,0,0,0-8.248A8.5,8.5,0,0,0,301.777,1077.2Zm-1.805,9.415a3.2,3.2,0,0,1-2.334.949,3.167,3.167,0,0,1-2.3-.949,3.269,3.269,0,0,1,0-4.638,3.166,3.166,0,0,1,2.3-.949,3.2,3.2,0,0,1,2.334.949,3.269,3.269,0,0,1,0,4.638Z" transform="translate(-282.324 -1059.888)" fill="none"/>
  <path id="Path_383" data-name="Path 383" d="M302.4,1096.182a3.328,3.328,0,0,0-2.443,1.011,3.4,3.4,0,0,0,0,4.84,3.35,3.35,0,0,0,2.443,1,3.314,3.314,0,0,0,2.412-1,3.431,3.431,0,0,0-2.412-5.851Z" transform="translate(-282.324 -1059.888)" fill="none"/>
  <path id="Path_384" data-name="Path 384" d="M292.938,1096.182a3.328,3.328,0,0,0-2.443,1.011,3.4,3.4,0,0,0,0,4.84,3.35,3.35,0,0,0,2.443,1,3.266,3.266,0,0,0,2.4-1,3.438,3.438,0,0,0,0-4.84A3.245,3.245,0,0,0,292.938,1096.182Z" transform="translate(-282.324 -1059.888)" fill="none"/>
  <path id="Path_385" data-name="Path 385" d="M305.917,1065.959H289.359a7.142,7.142,0,0,0-5.136,1.806,6.421,6.421,0,0,0-1.9,4.886v52.291a6.382,6.382,0,0,0,1.9,4.855,7.146,7.146,0,0,0,5.136,1.805h16.558a7.149,7.149,0,0,0,5.136-1.805,6.385,6.385,0,0,0,1.9-4.855v-52.291a6.424,6.424,0,0,0-1.9-4.886A7.146,7.146,0,0,0,305.917,1065.959Zm2.117,58.267a2.462,2.462,0,0,1-.716,1.867,2.765,2.765,0,0,1-1.992.685H289.95a2.761,2.761,0,0,1-1.992-.685,2.458,2.458,0,0,1-.716-1.867v-50.89a2.409,2.409,0,0,1,.716-1.852,2.8,2.8,0,0,1,1.992-.669h15.376a2.807,2.807,0,0,1,1.992.669,2.413,2.413,0,0,1,.716,1.852Z" transform="translate(-282.324 -1059.888)" fill="none"/>
  <path id="Path_386" data-name="Path 386" d="M334.151,1095.724a3.882,3.882,0,1,0,3.882,3.882A3.882,3.882,0,0,0,334.151,1095.724Z" transform="translate(-282.324 -1059.888)" fill="none"/>
  <path id="Path_387" data-name="Path 387" d="M353.894,1095.724a3.882,3.882,0,1,0,3.882,3.882A3.881,3.881,0,0,0,353.894,1095.724Z" transform="translate(-282.324 -1059.888)" fill="none"/>
  <path id="Path_388" data-name="Path 388" d="M373.637,1095.724a3.882,3.882,0,1,0,3.882,3.882A3.882,3.882,0,0,0,373.637,1095.724Z" transform="translate(-282.324 -1059.888)" fill="none"/>
</svg>
