<svg xmlns="http://www.w3.org/2000/svg" width="8.634" height="10.206" viewBox="0 0 8.634 10.206">
  <g id="Group_554" data-name="Group 554" transform="translate(-660.787 -66.854)">
    <path id="Path_414" data-name="Path 414" d="M669.421,76.108a.686.686,0,0,1-.217.094q-.217.078-.553.182c-.226.069-.474.145-.744.225s-.53.155-.778.221-.468.122-.658.164a2.211,2.211,0,0,1-.389.064,13.616,13.616,0,0,1-1.938-.136,6.005,6.005,0,0,1-1.694-.484,3.207,3.207,0,0,1-1.2-.943,2.4,2.4,0,0,1-.458-1.511,3.67,3.67,0,0,1,.193-1.162,5.662,5.662,0,0,1,.492-1.087,6.117,6.117,0,0,1,.658-.916,5.146,5.146,0,0,1,.689-.669,3.13,3.13,0,0,1-.485-.1,2.323,2.323,0,0,1-.51-.2,1.525,1.525,0,0,1-.4-.305.582.582,0,0,1-.162-.406,1.069,1.069,0,0,1,.087-.357,4.008,4.008,0,0,1,.22-.476q.134-.251.293-.5a2.866,2.866,0,0,1,.324-.418,1.929,1.929,0,0,1,.354-.3,1.6,1.6,0,0,1,.317-.158,1.171,1.171,0,0,1,.275-.064c.085-.008.153-.011.2-.011.074,0,.15,0,.23.011a.631.631,0,0,1,.2.046c.074.031.154.068.241.112s.169.09.244.136a2.219,2.219,0,0,1,.19.127c.051.038.075.069.075.093a.037.037,0,0,1-.014.029.052.052,0,0,1-.041.029q-.2,0-.592.04a4.014,4.014,0,0,0-.929.237,3.248,3.248,0,0,0-.544.256,2.069,2.069,0,0,0-.354.266.957.957,0,0,0-.2.251.46.46,0,0,0-.062.208c0,.073.062.153.186.239a2.47,2.47,0,0,0,.444.239,3.347,3.347,0,0,0,.541.176,2.133,2.133,0,0,0,.475.066c.036,0,.1,0,.2-.006a.712.712,0,0,0,.273-.063l.405-.179q.234-.1.492-.227c.173-.083.344-.163.517-.242s.327-.152.464-.216.251-.118.341-.158.136-.061.141-.061c.028,0,.043.016.048.046a.755.755,0,0,1-.12.179q-.122.155-.273.34c-.1.123-.2.238-.285.343a1.473,1.473,0,0,1-.155.17,3.262,3.262,0,0,1-.3.141c-.16.072-.342.157-.544.257a13.811,13.811,0,0,0-1.324.738,6.415,6.415,0,0,0-1.058.825,3.61,3.61,0,0,0-.7.94,2.381,2.381,0,0,0-.254,1.09,2.055,2.055,0,0,0,.234,1,2.415,2.415,0,0,0,.637.747,3.672,3.672,0,0,0,.933.527,7.388,7.388,0,0,0,1.126.343,9,9,0,0,0,1.218.184q.622.052,1.2.052c.221,0,.459-.009.717-.026s.508-.036.753-.058l.685-.058c.211-.017.387-.026.524-.026C669.388,76.016,669.421,76.046,669.421,76.108Z" transform="translate(0)" fill="none"/>
  </g>
</svg>
