<svg xmlns="http://www.w3.org/2000/svg" xmlns:xlink="http://www.w3.org/1999/xlink" width="16" height="22.814" viewBox="0 0 16 22.814">
  <defs>
    <clipPath id="clip-path">
      <path id="Path_403" data-name="Path 403" d="M838.027,57.977a.8.8,0,0,1-.789-.812V47.939a.791.791,0,0,0-.675-.783l-.761-.112c-.008,0-1.808-.342-1.808-1.194,0-.876,1.853-2.109,3.206-3.009.77-.512,1.549-1.031,2.233-1.595a.774.774,0,0,1,.984,0c.685.564,1.464,1.082,2.233,1.595,1.353.9,3.206,2.133,3.206,3.009,0,.852-1.8,1.193-1.818,1.2l-.755.121a.791.791,0,0,0-.665.775l-.006.767v8.456a.8.8,0,0,1-.789.812Z" transform="translate(-833.994 -41.07)" fill="none"/>
    </clipPath>
    <clipPath id="clip-path-2">
      <rect id="Rectangle_1619" data-name="Rectangle 1619" width="40.312" height="41.94" fill="none"/>
    </clipPath>
  </defs>
  <g id="Group_381" data-name="Group 381" transform="translate(-830.494 -34.185)">
    <path id="Path_402" data-name="Path 402" d="M852.388,69.759" transform="translate(-9.591 -15.594)" fill="none" stroke="#1a1818" stroke-linejoin="round" stroke-width="1"/>
    <g id="Group_380" data-name="Group 380" transform="translate(832.301 37.762)">
      <g id="Group_379" data-name="Group 379" transform="translate(0.261 0.261)">
        <g id="Group_378" data-name="Group 378" clip-path="url(#clip-path)">
          <g id="Group_377" data-name="Group 377" transform="translate(-23.512 -23.028)">
            <g id="Group_376" data-name="Group 376">
              <g id="Group_375" data-name="Group 375" clip-path="url(#clip-path-2)">
                <g id="Group_284" data-name="Group 284" transform="translate(40.032 0.197)">
                  <g id="Group_240" data-name="Group 240" transform="translate(0 40.987)">
                    <rect id="Rectangle_1487" data-name="Rectangle 1487" width="40.872" height="0.561" fill="#1a1818"/>
                  </g>
                  <g id="Group_241" data-name="Group 241" transform="translate(0 40.034)">
                    <rect id="Rectangle_1488" data-name="Rectangle 1488" width="40.872" height="0.561" fill="#1a1818"/>
                  </g>
                  <g id="Group_242" data-name="Group 242" transform="translate(0 39.081)">
                    <rect id="Rectangle_1489" data-name="Rectangle 1489" width="40.872" height="0.561" fill="#1a1818"/>
                  </g>
                  <g id="Group_243" data-name="Group 243" transform="translate(0 38.127)">
                    <rect id="Rectangle_1490" data-name="Rectangle 1490" width="40.872" height="0.561" fill="#1a1818"/>
                  </g>
                  <g id="Group_244" data-name="Group 244" transform="translate(0 37.174)">
                    <rect id="Rectangle_1491" data-name="Rectangle 1491" width="40.872" height="0.561" fill="#1a1818"/>
                  </g>
                  <g id="Group_245" data-name="Group 245" transform="translate(0 36.221)">
                    <rect id="Rectangle_1492" data-name="Rectangle 1492" width="40.872" height="0.561" fill="#1a1818"/>
                  </g>
                  <g id="Group_246" data-name="Group 246" transform="translate(0 35.268)">
                    <rect id="Rectangle_1493" data-name="Rectangle 1493" width="40.872" height="0.561" fill="#1a1818"/>
                  </g>
                  <g id="Group_247" data-name="Group 247" transform="translate(0 34.315)">
                    <rect id="Rectangle_1494" data-name="Rectangle 1494" width="40.872" height="0.561" fill="#1a1818"/>
                  </g>
                  <g id="Group_248" data-name="Group 248" transform="translate(0 33.361)">
                    <rect id="Rectangle_1495" data-name="Rectangle 1495" width="40.872" height="0.561" fill="#1a1818"/>
                  </g>
                  <g id="Group_249" data-name="Group 249" transform="translate(0 32.408)">
                    <rect id="Rectangle_1496" data-name="Rectangle 1496" width="40.872" height="0.561" fill="#1a1818"/>
                  </g>
                  <g id="Group_250" data-name="Group 250" transform="translate(0 31.455)">
                    <rect id="Rectangle_1497" data-name="Rectangle 1497" width="40.872" height="0.561" fill="#1a1818"/>
                  </g>
                  <g id="Group_251" data-name="Group 251" transform="translate(0 30.502)">
                    <rect id="Rectangle_1498" data-name="Rectangle 1498" width="40.872" height="0.561" fill="#1a1818"/>
                  </g>
                  <g id="Group_252" data-name="Group 252" transform="translate(0 29.549)">
                    <rect id="Rectangle_1499" data-name="Rectangle 1499" width="40.872" height="0.561" fill="#1a1818"/>
                  </g>
                  <g id="Group_253" data-name="Group 253" transform="translate(0 28.596)">
                    <rect id="Rectangle_1500" data-name="Rectangle 1500" width="40.872" height="0.561" fill="#1a1818"/>
                  </g>
                  <g id="Group_254" data-name="Group 254" transform="translate(0 27.643)">
                    <rect id="Rectangle_1501" data-name="Rectangle 1501" width="40.872" height="0.561" fill="#1a1818"/>
                  </g>
                  <g id="Group_255" data-name="Group 255" transform="translate(0 26.69)">
                    <rect id="Rectangle_1502" data-name="Rectangle 1502" width="40.872" height="0.561" fill="#1a1818"/>
                  </g>
                  <g id="Group_256" data-name="Group 256" transform="translate(0 25.736)">
                    <rect id="Rectangle_1503" data-name="Rectangle 1503" width="40.872" height="0.561" fill="#1a1818"/>
                  </g>
                  <g id="Group_257" data-name="Group 257" transform="translate(0 24.783)">
                    <rect id="Rectangle_1504" data-name="Rectangle 1504" width="40.872" height="0.561" fill="#1a1818"/>
                  </g>
                  <g id="Group_258" data-name="Group 258" transform="translate(0 23.83)">
                    <rect id="Rectangle_1505" data-name="Rectangle 1505" width="40.872" height="0.561" fill="#1a1818"/>
                  </g>
                  <g id="Group_259" data-name="Group 259" transform="translate(0 22.877)">
                    <rect id="Rectangle_1506" data-name="Rectangle 1506" width="40.872" height="0.561" fill="#1a1818"/>
                  </g>
                  <g id="Group_260" data-name="Group 260" transform="translate(0 21.924)">
                    <rect id="Rectangle_1507" data-name="Rectangle 1507" width="40.872" height="0.561" fill="#1a1818"/>
                  </g>
                  <g id="Group_261" data-name="Group 261" transform="translate(0 20.971)">
                    <rect id="Rectangle_1508" data-name="Rectangle 1508" width="40.872" height="0.561" fill="#1a1818"/>
                  </g>
                  <g id="Group_262" data-name="Group 262" transform="translate(0 20.017)">
                    <rect id="Rectangle_1509" data-name="Rectangle 1509" width="40.872" height="0.561" fill="#1a1818"/>
                  </g>
                  <g id="Group_263" data-name="Group 263" transform="translate(0 19.064)">
                    <rect id="Rectangle_1510" data-name="Rectangle 1510" width="40.872" height="0.561" fill="#1a1818"/>
                  </g>
                  <g id="Group_264" data-name="Group 264" transform="translate(0 18.111)">
                    <rect id="Rectangle_1511" data-name="Rectangle 1511" width="40.872" height="0.561" fill="#1a1818"/>
                  </g>
                  <g id="Group_265" data-name="Group 265" transform="translate(0 17.158)">
                    <rect id="Rectangle_1512" data-name="Rectangle 1512" width="40.872" height="0.561" fill="#1a1818"/>
                  </g>
                  <g id="Group_266" data-name="Group 266" transform="translate(0 16.205)">
                    <rect id="Rectangle_1513" data-name="Rectangle 1513" width="40.872" height="0.561" fill="#1a1818"/>
                  </g>
                  <g id="Group_267" data-name="Group 267" transform="translate(0 15.251)">
                    <rect id="Rectangle_1514" data-name="Rectangle 1514" width="40.872" height="0.561" fill="#1a1818"/>
                  </g>
                  <g id="Group_268" data-name="Group 268" transform="translate(0 14.298)">
                    <rect id="Rectangle_1515" data-name="Rectangle 1515" width="40.872" height="0.561" fill="#1a1818"/>
                  </g>
                  <g id="Group_269" data-name="Group 269" transform="translate(0 13.345)">
                    <rect id="Rectangle_1516" data-name="Rectangle 1516" width="40.872" height="0.561" fill="#1a1818"/>
                  </g>
                  <g id="Group_270" data-name="Group 270" transform="translate(0 12.392)">
                    <rect id="Rectangle_1517" data-name="Rectangle 1517" width="40.872" height="0.561" fill="#1a1818"/>
                  </g>
                  <g id="Group_271" data-name="Group 271" transform="translate(0 11.439)">
                    <rect id="Rectangle_1518" data-name="Rectangle 1518" width="40.872" height="0.561" fill="#1a1818"/>
                  </g>
                  <g id="Group_272" data-name="Group 272" transform="translate(0 10.485)">
                    <rect id="Rectangle_1519" data-name="Rectangle 1519" width="40.872" height="0.561" fill="#1a1818"/>
                  </g>
                  <g id="Group_273" data-name="Group 273" transform="translate(0 9.532)">
                    <rect id="Rectangle_1520" data-name="Rectangle 1520" width="40.872" height="0.561" fill="#1a1818"/>
                  </g>
                  <g id="Group_274" data-name="Group 274" transform="translate(0 8.579)">
                    <rect id="Rectangle_1521" data-name="Rectangle 1521" width="40.872" height="0.561" fill="#1a1818"/>
                  </g>
                  <g id="Group_275" data-name="Group 275" transform="translate(0 7.626)">
                    <rect id="Rectangle_1522" data-name="Rectangle 1522" width="40.872" height="0.561" fill="#1a1818"/>
                  </g>
                  <g id="Group_276" data-name="Group 276" transform="translate(0 6.673)">
                    <rect id="Rectangle_1523" data-name="Rectangle 1523" width="40.872" height="0.561" fill="#1a1818"/>
                  </g>
                  <g id="Group_277" data-name="Group 277" transform="translate(0 5.719)">
                    <rect id="Rectangle_1524" data-name="Rectangle 1524" width="40.872" height="0.561" fill="#1a1818"/>
                  </g>
                  <g id="Group_278" data-name="Group 278" transform="translate(0 4.766)">
                    <rect id="Rectangle_1525" data-name="Rectangle 1525" width="40.872" height="0.561" fill="#1a1818"/>
                  </g>
                  <g id="Group_279" data-name="Group 279" transform="translate(0 3.813)">
                    <rect id="Rectangle_1526" data-name="Rectangle 1526" width="40.872" height="0.561" fill="#1a1818"/>
                  </g>
                  <g id="Group_280" data-name="Group 280" transform="translate(0 2.86)">
                    <rect id="Rectangle_1527" data-name="Rectangle 1527" width="40.872" height="0.561" fill="#1a1818"/>
                  </g>
                  <g id="Group_281" data-name="Group 281" transform="translate(0 1.907)">
                    <rect id="Rectangle_1528" data-name="Rectangle 1528" width="40.872" height="0.561" fill="#1a1818"/>
                  </g>
                  <g id="Group_282" data-name="Group 282" transform="translate(0 0.953)">
                    <rect id="Rectangle_1529" data-name="Rectangle 1529" width="40.872" height="0.561" fill="#1a1818"/>
                  </g>
                  <g id="Group_283" data-name="Group 283">
                    <rect id="Rectangle_1530" data-name="Rectangle 1530" width="40.872" height="0.561" fill="#1a1818"/>
                  </g>
                </g>
                <g id="Group_329" data-name="Group 329" transform="translate(-0.28 0.197)">
                  <g id="Group_285" data-name="Group 285" transform="translate(0 40.987)">
                    <rect id="Rectangle_1531" data-name="Rectangle 1531" width="40.872" height="0.561" fill="#1a1818"/>
                  </g>
                  <g id="Group_286" data-name="Group 286" transform="translate(0 40.034)">
                    <rect id="Rectangle_1532" data-name="Rectangle 1532" width="40.872" height="0.561" fill="#1a1818"/>
                  </g>
                  <g id="Group_287" data-name="Group 287" transform="translate(0 39.081)">
                    <rect id="Rectangle_1533" data-name="Rectangle 1533" width="40.872" height="0.561" fill="#1a1818"/>
                  </g>
                  <g id="Group_288" data-name="Group 288" transform="translate(0 38.127)">
                    <rect id="Rectangle_1534" data-name="Rectangle 1534" width="40.872" height="0.561" fill="#1a1818"/>
                  </g>
                  <g id="Group_289" data-name="Group 289" transform="translate(0 37.174)">
                    <rect id="Rectangle_1535" data-name="Rectangle 1535" width="40.872" height="0.561" fill="#1a1818"/>
                  </g>
                  <g id="Group_290" data-name="Group 290" transform="translate(0 36.221)">
                    <rect id="Rectangle_1536" data-name="Rectangle 1536" width="40.872" height="0.561" fill="#1a1818"/>
                  </g>
                  <g id="Group_291" data-name="Group 291" transform="translate(0 35.268)">
                    <rect id="Rectangle_1537" data-name="Rectangle 1537" width="40.872" height="0.561" fill="#1a1818"/>
                  </g>
                  <g id="Group_292" data-name="Group 292" transform="translate(0 34.315)">
                    <rect id="Rectangle_1538" data-name="Rectangle 1538" width="40.872" height="0.561" fill="#1a1818"/>
                  </g>
                  <g id="Group_293" data-name="Group 293" transform="translate(0 33.361)">
                    <rect id="Rectangle_1539" data-name="Rectangle 1539" width="40.872" height="0.561" fill="#1a1818"/>
                  </g>
                  <g id="Group_294" data-name="Group 294" transform="translate(0 32.408)">
                    <rect id="Rectangle_1540" data-name="Rectangle 1540" width="40.872" height="0.561" fill="#1a1818"/>
                  </g>
                  <g id="Group_295" data-name="Group 295" transform="translate(0 31.455)">
                    <rect id="Rectangle_1541" data-name="Rectangle 1541" width="40.872" height="0.561" fill="#1a1818"/>
                  </g>
                  <g id="Group_296" data-name="Group 296" transform="translate(0 30.502)">
                    <rect id="Rectangle_1542" data-name="Rectangle 1542" width="40.872" height="0.561" fill="#1a1818"/>
                  </g>
                  <g id="Group_297" data-name="Group 297" transform="translate(0 29.549)">
                    <rect id="Rectangle_1543" data-name="Rectangle 1543" width="40.872" height="0.561" fill="#1a1818"/>
                  </g>
                  <g id="Group_298" data-name="Group 298" transform="translate(0 28.596)">
                    <rect id="Rectangle_1544" data-name="Rectangle 1544" width="40.872" height="0.561" fill="#1a1818"/>
                  </g>
                  <g id="Group_299" data-name="Group 299" transform="translate(0 27.643)">
                    <rect id="Rectangle_1545" data-name="Rectangle 1545" width="40.872" height="0.561" fill="#1a1818"/>
                  </g>
                  <g id="Group_300" data-name="Group 300" transform="translate(0 26.69)">
                    <rect id="Rectangle_1546" data-name="Rectangle 1546" width="40.872" height="0.561" fill="#1a1818"/>
                  </g>
                  <g id="Group_301" data-name="Group 301" transform="translate(0 25.736)">
                    <rect id="Rectangle_1547" data-name="Rectangle 1547" width="40.872" height="0.561" fill="#1a1818"/>
                  </g>
                  <g id="Group_302" data-name="Group 302" transform="translate(0 24.783)">
                    <rect id="Rectangle_1548" data-name="Rectangle 1548" width="40.872" height="0.561" fill="#1a1818"/>
                  </g>
                  <g id="Group_303" data-name="Group 303" transform="translate(0 23.83)">
                    <rect id="Rectangle_1549" data-name="Rectangle 1549" width="40.872" height="0.561" fill="#1a1818"/>
                  </g>
                  <g id="Group_304" data-name="Group 304" transform="translate(0 22.877)">
                    <rect id="Rectangle_1550" data-name="Rectangle 1550" width="40.872" height="0.561" fill="#1a1818"/>
                  </g>
                  <g id="Group_305" data-name="Group 305" transform="translate(0 21.924)">
                    <rect id="Rectangle_1551" data-name="Rectangle 1551" width="40.872" height="0.561" fill="#1a1818"/>
                  </g>
                  <g id="Group_306" data-name="Group 306" transform="translate(0 20.971)">
                    <rect id="Rectangle_1552" data-name="Rectangle 1552" width="40.872" height="0.561" fill="#1a1818"/>
                  </g>
                  <g id="Group_307" data-name="Group 307" transform="translate(0 20.017)">
                    <rect id="Rectangle_1553" data-name="Rectangle 1553" width="40.872" height="0.561" fill="#1a1818"/>
                  </g>
                  <g id="Group_308" data-name="Group 308" transform="translate(0 19.064)">
                    <rect id="Rectangle_1554" data-name="Rectangle 1554" width="40.872" height="0.561" fill="#1a1818"/>
                  </g>
                  <g id="Group_309" data-name="Group 309" transform="translate(0 18.111)">
                    <rect id="Rectangle_1555" data-name="Rectangle 1555" width="40.872" height="0.561" fill="#1a1818"/>
                  </g>
                  <g id="Group_310" data-name="Group 310" transform="translate(0 17.158)">
                    <rect id="Rectangle_1556" data-name="Rectangle 1556" width="40.872" height="0.561" fill="#1a1818"/>
                  </g>
                  <g id="Group_311" data-name="Group 311" transform="translate(0 16.205)">
                    <rect id="Rectangle_1557" data-name="Rectangle 1557" width="40.872" height="0.561" fill="#1a1818"/>
                  </g>
                  <g id="Group_312" data-name="Group 312" transform="translate(0 15.251)">
                    <rect id="Rectangle_1558" data-name="Rectangle 1558" width="40.872" height="0.561" fill="#1a1818"/>
                  </g>
                  <g id="Group_313" data-name="Group 313" transform="translate(0 14.298)">
                    <rect id="Rectangle_1559" data-name="Rectangle 1559" width="40.872" height="0.561" fill="#1a1818"/>
                  </g>
                  <g id="Group_314" data-name="Group 314" transform="translate(0 13.345)">
                    <rect id="Rectangle_1560" data-name="Rectangle 1560" width="40.872" height="0.561" fill="#1a1818"/>
                  </g>
                  <g id="Group_315" data-name="Group 315" transform="translate(0 12.392)">
                    <rect id="Rectangle_1561" data-name="Rectangle 1561" width="40.872" height="0.561" fill="#1a1818"/>
                  </g>
                  <g id="Group_316" data-name="Group 316" transform="translate(0 11.439)">
                    <rect id="Rectangle_1562" data-name="Rectangle 1562" width="40.872" height="0.561" fill="#1a1818"/>
                  </g>
                  <g id="Group_317" data-name="Group 317" transform="translate(0 10.485)">
                    <rect id="Rectangle_1563" data-name="Rectangle 1563" width="40.872" height="0.561" fill="#1a1818"/>
                  </g>
                  <g id="Group_318" data-name="Group 318" transform="translate(0 9.532)">
                    <rect id="Rectangle_1564" data-name="Rectangle 1564" width="40.872" height="0.561" fill="#1a1818"/>
                  </g>
                  <g id="Group_319" data-name="Group 319" transform="translate(0 8.579)">
                    <rect id="Rectangle_1565" data-name="Rectangle 1565" width="40.872" height="0.561" fill="#1a1818"/>
                  </g>
                  <g id="Group_320" data-name="Group 320" transform="translate(0 7.626)">
                    <rect id="Rectangle_1566" data-name="Rectangle 1566" width="40.872" height="0.561" fill="#1a1818"/>
                  </g>
                  <g id="Group_321" data-name="Group 321" transform="translate(0 6.673)">
                    <rect id="Rectangle_1567" data-name="Rectangle 1567" width="40.872" height="0.561" fill="#1a1818"/>
                  </g>
                  <g id="Group_322" data-name="Group 322" transform="translate(0 5.719)">
                    <rect id="Rectangle_1568" data-name="Rectangle 1568" width="40.872" height="0.561" fill="#1a1818"/>
                  </g>
                  <g id="Group_323" data-name="Group 323" transform="translate(0 4.766)">
                    <rect id="Rectangle_1569" data-name="Rectangle 1569" width="40.872" height="0.561" fill="#1a1818"/>
                  </g>
                  <g id="Group_324" data-name="Group 324" transform="translate(0 3.813)">
                    <rect id="Rectangle_1570" data-name="Rectangle 1570" width="40.872" height="0.561" fill="#1a1818"/>
                  </g>
                  <g id="Group_325" data-name="Group 325" transform="translate(0 2.86)">
                    <rect id="Rectangle_1571" data-name="Rectangle 1571" width="40.872" height="0.561" fill="#1a1818"/>
                  </g>
                  <g id="Group_326" data-name="Group 326" transform="translate(0 1.907)">
                    <rect id="Rectangle_1572" data-name="Rectangle 1572" width="40.872" height="0.561" fill="#1a1818"/>
                  </g>
                  <g id="Group_327" data-name="Group 327" transform="translate(0 0.953)">
                    <rect id="Rectangle_1573" data-name="Rectangle 1573" width="40.872" height="0.561" fill="#1a1818"/>
                  </g>
                  <g id="Group_328" data-name="Group 328">
                    <rect id="Rectangle_1574" data-name="Rectangle 1574" width="40.872" height="0.561" fill="#1a1818"/>
                  </g>
                </g>
                <g id="Group_374" data-name="Group 374" transform="translate(-40.592 0.197)">
                  <g id="Group_330" data-name="Group 330" transform="translate(0 40.987)">
                    <rect id="Rectangle_1575" data-name="Rectangle 1575" width="40.872" height="0.561" fill="#1a1818"/>
                  </g>
                  <g id="Group_331" data-name="Group 331" transform="translate(0 40.034)">
                    <rect id="Rectangle_1576" data-name="Rectangle 1576" width="40.872" height="0.561" fill="#1a1818"/>
                  </g>
                  <g id="Group_332" data-name="Group 332" transform="translate(0 39.081)">
                    <rect id="Rectangle_1577" data-name="Rectangle 1577" width="40.872" height="0.561" fill="#1a1818"/>
                  </g>
                  <g id="Group_333" data-name="Group 333" transform="translate(0 38.127)">
                    <rect id="Rectangle_1578" data-name="Rectangle 1578" width="40.872" height="0.561" fill="#1a1818"/>
                  </g>
                  <g id="Group_334" data-name="Group 334" transform="translate(0 37.174)">
                    <rect id="Rectangle_1579" data-name="Rectangle 1579" width="40.872" height="0.561" fill="#1a1818"/>
                  </g>
                  <g id="Group_335" data-name="Group 335" transform="translate(0 36.221)">
                    <rect id="Rectangle_1580" data-name="Rectangle 1580" width="40.872" height="0.561" fill="#1a1818"/>
                  </g>
                  <g id="Group_336" data-name="Group 336" transform="translate(0 35.268)">
                    <rect id="Rectangle_1581" data-name="Rectangle 1581" width="40.872" height="0.561" fill="#1a1818"/>
                  </g>
                  <g id="Group_337" data-name="Group 337" transform="translate(0 34.315)">
                    <rect id="Rectangle_1582" data-name="Rectangle 1582" width="40.872" height="0.561" fill="#1a1818"/>
                  </g>
                  <g id="Group_338" data-name="Group 338" transform="translate(0 33.361)">
                    <rect id="Rectangle_1583" data-name="Rectangle 1583" width="40.872" height="0.561" fill="#1a1818"/>
                  </g>
                  <g id="Group_339" data-name="Group 339" transform="translate(0 32.408)">
                    <rect id="Rectangle_1584" data-name="Rectangle 1584" width="40.872" height="0.561" fill="#1a1818"/>
                  </g>
                  <g id="Group_340" data-name="Group 340" transform="translate(0 31.455)">
                    <rect id="Rectangle_1585" data-name="Rectangle 1585" width="40.872" height="0.561" fill="#1a1818"/>
                  </g>
                  <g id="Group_341" data-name="Group 341" transform="translate(0 30.502)">
                    <rect id="Rectangle_1586" data-name="Rectangle 1586" width="40.872" height="0.561" fill="#1a1818"/>
                  </g>
                  <g id="Group_342" data-name="Group 342" transform="translate(0 29.549)">
                    <rect id="Rectangle_1587" data-name="Rectangle 1587" width="40.872" height="0.561" fill="#1a1818"/>
                  </g>
                  <g id="Group_343" data-name="Group 343" transform="translate(0 28.596)">
                    <rect id="Rectangle_1588" data-name="Rectangle 1588" width="40.872" height="0.561" fill="#1a1818"/>
                  </g>
                  <g id="Group_344" data-name="Group 344" transform="translate(0 27.643)">
                    <rect id="Rectangle_1589" data-name="Rectangle 1589" width="40.872" height="0.561" fill="#1a1818"/>
                  </g>
                  <g id="Group_345" data-name="Group 345" transform="translate(0 26.69)">
                    <rect id="Rectangle_1590" data-name="Rectangle 1590" width="40.872" height="0.561" fill="#1a1818"/>
                  </g>
                  <g id="Group_346" data-name="Group 346" transform="translate(0 25.736)">
                    <rect id="Rectangle_1591" data-name="Rectangle 1591" width="40.872" height="0.561" fill="#1a1818"/>
                  </g>
                  <g id="Group_347" data-name="Group 347" transform="translate(0 24.783)">
                    <rect id="Rectangle_1592" data-name="Rectangle 1592" width="40.872" height="0.561" fill="#1a1818"/>
                  </g>
                  <g id="Group_348" data-name="Group 348" transform="translate(0 23.83)">
                    <rect id="Rectangle_1593" data-name="Rectangle 1593" width="40.872" height="0.561" fill="#1a1818"/>
                  </g>
                  <g id="Group_349" data-name="Group 349" transform="translate(0 22.877)">
                    <rect id="Rectangle_1594" data-name="Rectangle 1594" width="40.872" height="0.561" fill="#1a1818"/>
                  </g>
                  <g id="Group_350" data-name="Group 350" transform="translate(0 21.924)">
                    <rect id="Rectangle_1595" data-name="Rectangle 1595" width="40.872" height="0.561" fill="#1a1818"/>
                  </g>
                  <g id="Group_351" data-name="Group 351" transform="translate(0 20.971)">
                    <rect id="Rectangle_1596" data-name="Rectangle 1596" width="40.872" height="0.561" fill="#1a1818"/>
                  </g>
                  <g id="Group_352" data-name="Group 352" transform="translate(0 20.017)">
                    <rect id="Rectangle_1597" data-name="Rectangle 1597" width="40.872" height="0.561" fill="#1a1818"/>
                  </g>
                  <g id="Group_353" data-name="Group 353" transform="translate(0 19.064)">
                    <rect id="Rectangle_1598" data-name="Rectangle 1598" width="40.872" height="0.561" fill="#1a1818"/>
                  </g>
                  <g id="Group_354" data-name="Group 354" transform="translate(0 18.111)">
                    <rect id="Rectangle_1599" data-name="Rectangle 1599" width="40.872" height="0.561" fill="#1a1818"/>
                  </g>
                  <g id="Group_355" data-name="Group 355" transform="translate(0 17.158)">
                    <rect id="Rectangle_1600" data-name="Rectangle 1600" width="40.872" height="0.561" fill="#1a1818"/>
                  </g>
                  <g id="Group_356" data-name="Group 356" transform="translate(0 16.205)">
                    <rect id="Rectangle_1601" data-name="Rectangle 1601" width="40.872" height="0.561" fill="#1a1818"/>
                  </g>
                  <g id="Group_357" data-name="Group 357" transform="translate(0 15.251)">
                    <rect id="Rectangle_1602" data-name="Rectangle 1602" width="40.872" height="0.561" fill="#1a1818"/>
                  </g>
                  <g id="Group_358" data-name="Group 358" transform="translate(0 14.298)">
                    <rect id="Rectangle_1603" data-name="Rectangle 1603" width="40.872" height="0.561" fill="#1a1818"/>
                  </g>
                  <g id="Group_359" data-name="Group 359" transform="translate(0 13.345)">
                    <rect id="Rectangle_1604" data-name="Rectangle 1604" width="40.872" height="0.561" fill="#1a1818"/>
                  </g>
                  <g id="Group_360" data-name="Group 360" transform="translate(0 12.392)">
                    <rect id="Rectangle_1605" data-name="Rectangle 1605" width="40.872" height="0.561" fill="#1a1818"/>
                  </g>
                  <g id="Group_361" data-name="Group 361" transform="translate(0 11.439)">
                    <rect id="Rectangle_1606" data-name="Rectangle 1606" width="40.872" height="0.561" fill="#1a1818"/>
                  </g>
                  <g id="Group_362" data-name="Group 362" transform="translate(0 10.485)">
                    <rect id="Rectangle_1607" data-name="Rectangle 1607" width="40.872" height="0.561" fill="#1a1818"/>
                  </g>
                  <g id="Group_363" data-name="Group 363" transform="translate(0 9.532)">
                    <rect id="Rectangle_1608" data-name="Rectangle 1608" width="40.872" height="0.561" fill="#1a1818"/>
                  </g>
                  <g id="Group_364" data-name="Group 364" transform="translate(0 8.579)">
                    <rect id="Rectangle_1609" data-name="Rectangle 1609" width="40.872" height="0.561" fill="#1a1818"/>
                  </g>
                  <g id="Group_365" data-name="Group 365" transform="translate(0 7.626)">
                    <rect id="Rectangle_1610" data-name="Rectangle 1610" width="40.872" height="0.561" fill="#1a1818"/>
                  </g>
                  <g id="Group_366" data-name="Group 366" transform="translate(0 6.673)">
                    <rect id="Rectangle_1611" data-name="Rectangle 1611" width="40.872" height="0.561" fill="#1a1818"/>
                  </g>
                  <g id="Group_367" data-name="Group 367" transform="translate(0 5.719)">
                    <rect id="Rectangle_1612" data-name="Rectangle 1612" width="40.872" height="0.561" fill="#1a1818"/>
                  </g>
                  <g id="Group_368" data-name="Group 368" transform="translate(0 4.766)">
                    <rect id="Rectangle_1613" data-name="Rectangle 1613" width="40.872" height="0.561" fill="#1a1818"/>
                  </g>
                  <g id="Group_369" data-name="Group 369" transform="translate(0 3.813)">
                    <rect id="Rectangle_1614" data-name="Rectangle 1614" width="40.872" height="0.561" fill="#1a1818"/>
                  </g>
                  <g id="Group_370" data-name="Group 370" transform="translate(0 2.86)">
                    <rect id="Rectangle_1615" data-name="Rectangle 1615" width="40.872" height="0.561" fill="#1a1818"/>
                  </g>
                  <g id="Group_371" data-name="Group 371" transform="translate(0 1.907)">
                    <rect id="Rectangle_1616" data-name="Rectangle 1616" width="40.872" height="0.561" fill="#1a1818"/>
                  </g>
                  <g id="Group_372" data-name="Group 372" transform="translate(0 0.953)">
                    <rect id="Rectangle_1617" data-name="Rectangle 1617" width="40.872" height="0.561" fill="#1a1818"/>
                  </g>
                  <g id="Group_373" data-name="Group 373">
                    <rect id="Rectangle_1618" data-name="Rectangle 1618" width="40.872" height="0.561" fill="#1a1818"/>
                  </g>
                </g>
              </g>
            </g>
          </g>
        </g>
      </g>
      <path id="Path_404" data-name="Path 404" d="M841.58,58h-3.786a1.048,1.048,0,0,1-.747-.311,1.094,1.094,0,0,1-.318-.78V47.7a.511.511,0,0,0-.434-.5l-.759-.111c-.026,0-2.041-.354-2.041-1.469,0-.948,1.5-2.026,3.321-3.236.753-.5,1.532-1.021,2.2-1.574a1.051,1.051,0,0,1,1.336,0c.672.554,1.451,1.073,2.2,1.574,1.817,1.21,3.321,2.288,3.321,3.236,0,1.109-2.03,1.466-2.05,1.47l-.751.12a.507.507,0,0,0-.428.5l-.006.766V56.9a1.1,1.1,0,0,1-.319.788A1.048,1.048,0,0,1,841.58,58Zm-1.893-16.87a.493.493,0,0,0-.314.112c-.694.572-1.485,1.1-2.25,1.609-1.149.765-3.071,2.045-3.071,2.769,0,.465,1.081.824,1.574.916l.749.11a1.074,1.074,0,0,1,.912,1.057v9.2a.547.547,0,0,0,.155.393.5.5,0,0,0,.352.146h3.786a.494.494,0,0,0,.352-.146.539.539,0,0,0,.156-.384l.006-9.205a1.065,1.065,0,0,1,.9-1.047l.752-.12c.492-.09,1.578-.446,1.578-.917,0-.725-1.923-2-3.071-2.769-.765-.51-1.556-1.036-2.25-1.609A.491.491,0,0,0,839.687,41.13Z" transform="translate(-833.494 -40.571)" fill="#1a1818"/>
    </g>
    <path id="Path_405" data-name="Path 405" d="M843.926,56.5a2.144,2.144,0,0,1-1.129-1.655V45.724s3.2-.468,3.2-2.813c0-3.41-7.5-5.157-7.5-8.226,0,3.069-7.5,4.816-7.5,8.226,0,2.345,3.2,2.813,3.2,2.813v9.119a2.144,2.144,0,0,1-1.129,1.655Z" transform="translate(0 0)" fill="none" stroke="#1a1818" stroke-linejoin="round" stroke-width="1"/>
  </g>
</svg>
