<svg xmlns="http://www.w3.org/2000/svg" width="19.215" height="19.38" viewBox="0 0 19.215 19.38">
  <g id="Group_545" data-name="Group 545" transform="translate(-694.718 -78.335)">
    <path id="Path_413" data-name="Path 413" d="M695.336,83.211a7.958,7.958,0,0,1,1.719-2.544,8.083,8.083,0,0,1,2.544-1.714,8.059,8.059,0,0,1,6.19,0,8.072,8.072,0,0,1,2.543,1.714,7.959,7.959,0,0,1,1.719,2.544,7.791,7.791,0,0,1,.618,3.09,7.638,7.638,0,0,1-.361,2.357,7.853,7.853,0,0,1-1.01,2.057L713.46,94.9a1.709,1.709,0,0,1,.353.536,1.658,1.658,0,0,1,.12.633,1.677,1.677,0,0,1-.213.84,1.578,1.578,0,0,1-.58.593,1.629,1.629,0,0,1-.849.218,1.8,1.8,0,0,1-.638-.115,1.533,1.533,0,0,1-.55-.358l-4.2-4.2a8.144,8.144,0,0,1-1.974.913,7.448,7.448,0,0,1-2.235.333,7.781,7.781,0,0,1-3.095-.618,8.061,8.061,0,0,1-4.263-4.268,8.058,8.058,0,0,1,0-6.19ZM697.5,88.49a5.729,5.729,0,0,0,3,3,5.678,5.678,0,0,0,4.375,0,5.716,5.716,0,0,0,3-3,5.633,5.633,0,0,0,0-4.365,5.791,5.791,0,0,0-1.211-1.8,5.622,5.622,0,0,0-1.791-1.211,5.718,5.718,0,0,0-4.375,0,5.6,5.6,0,0,0-1.79,1.211,5.768,5.768,0,0,0-1.213,1.8,5.654,5.654,0,0,0,0,4.365Z" fill="none"/>
  </g>
</svg>
