<svg xmlns="http://www.w3.org/2000/svg" width="22" height="23.072" viewBox="0 0 22 23.072">
  <path id="Path_285" data-name="Path 285" d="M447.97,358.059c0,.34,0,.679,0,1.019a.559.559,0,0,1-.491.617c-.551.094-1.1.179-1.66.232a10.373,10.373,0,0,1-1.244.029,10.749,10.749,0,0,1-2.076-.264.6.6,0,0,1-.485-.671c0-.662-.005-1.323,0-1.985a.225.225,0,0,0-.178-.253,8.232,8.232,0,0,1-2.491-1.453.207.207,0,0,0-.283-.021c-.462.274-.928.543-1.392.813l-.388.222a.574.574,0,0,1-.762-.117,12.984,12.984,0,0,1-1.254-1.651,11.833,11.833,0,0,1-1.219-2.6.607.607,0,0,1,.311-.833c.583-.336,1.164-.676,1.749-1.009a.182.182,0,0,0,.111-.224,8.535,8.535,0,0,1-.11-1.975c.017-.329.061-.658.11-.984a.2.2,0,0,0-.118-.237c-.549-.313-1.1-.63-1.644-.947l-.14-.082a.576.576,0,0,1-.287-.739,11.524,11.524,0,0,1,2.019-3.772c.152-.186.307-.369.47-.544a.539.539,0,0,1,.764-.121q.9.508,1.779,1.037a.2.2,0,0,0,.272-.018,8.579,8.579,0,0,1,2.545-1.471.182.182,0,0,0,.133-.2c0-.684,0-1.368,0-2.052a.591.591,0,0,1,.533-.656,13.055,13.055,0,0,1,2.255-.254,11.829,11.829,0,0,1,2.658.26.586.586,0,0,1,.513.632q0,1.026,0,2.052c0,.1.02.17.127.208a8.638,8.638,0,0,1,2.578,1.494.155.155,0,0,0,.212.016q.848-.5,1.7-.984c.05-.029.1-.06.154-.086a.536.536,0,0,1,.7.12,10.8,10.8,0,0,1,1.283,1.678,11.28,11.28,0,0,1,1.222,2.627.588.588,0,0,1-.3.779q-.9.523-1.806,1.045a.152.152,0,0,0-.082.176c.052.513.127,1.027.129,1.54a13.047,13.047,0,0,1-.125,1.459.185.185,0,0,0,.107.214c.565.322,1.127.65,1.692.971a.646.646,0,0,1,.358.919c-.042.124-.081.249-.126.373a11.538,11.538,0,0,1-1.555,2.9c-.236.315-.49.616-.75.91a.563.563,0,0,1-.819.127c-.591-.34-1.182-.681-1.768-1.029a.183.183,0,0,0-.249.022,8.477,8.477,0,0,1-2.566,1.487.162.162,0,0,0-.12.181C447.972,357.343,447.97,357.7,447.97,358.059Zm.7-9.642a3.686,3.686,0,1,0-7.372.008,3.686,3.686,0,1,0,7.372-.008Z" transform="translate(-433.989 -336.89)" fill="none"/>
</svg>
