<svg xmlns="http://www.w3.org/2000/svg" width="24.997" height="20" viewBox="0 0 24.997 20"><path d="M302.855,147.73a.7.7,0,0,1,.726-.665h7.6a5.126,5.126,0,0,1-1.1-3.175,5.272,5.272,0,1,1,10.544,0,5.13,5.13,0,0,1-1.1,3.175h7.6a.668.668,0,1,1,0,1.33H303.581A.705.705,0,0,1,302.855,147.73Zm1.247-4.089a.692.692,0,0,1,.726-.673h2.683a.7.7,0,0,1,.733.673.69.69,0,0,1-.733.673h-2.683A.692.692,0,0,1,304.1,143.641Zm5.223-4.822-1.89-1.9a.678.678,0,0,1-.038-.99.692.692,0,0,1,.991.038l1.9,1.889a.681.681,0,1,1-.96.96Zm3.757,8.247h4.543a3.884,3.884,0,0,0,1.663-3.175,3.934,3.934,0,1,0-7.869,0A3.884,3.884,0,0,0,313.082,147.065Zm1.6-11.648v-3.764l.1-1.542-.726.816-1.4,1.414a.621.621,0,0,1-.446.2.55.55,0,0,1-.575-.566.587.587,0,0,1,.212-.461l3.053-2.9a.588.588,0,0,1,.915,0l3.054,2.9a.6.6,0,0,1,.219.461.552.552,0,0,1-.582.566.62.62,0,0,1-.446-.2l-1.323-1.331-.8-.9.1,1.542v3.764a.679.679,0,1,1-1.353,0Zm5.745,2.441,1.9-1.889a.678.678,0,1,1,.96.952l-1.9,1.9a.681.681,0,1,1-.96-.96Zm2.041,5.783a.694.694,0,0,1,.733-.673h2.683a.675.675,0,1,1,0,1.345H323.2A.7.7,0,0,1,322.463,143.641Z" transform="translate(-302.855 -128.395)" fill="#1c212b"/></svg>