<svg xmlns="http://www.w3.org/2000/svg" width="35.046" height="28.966" viewBox="0 0 35.046 28.966">
  <path id="Path_1304" data-name="Path 1304" d="M11.457,2.853a1.232,1.232,0,0,0,.92-1.224q.449-.074.908-.116a1.231,1.231,0,0,0,1.2.952c.016,0,.03,0,.046,0s.03,0,.046,0a1.232,1.232,0,0,0,1.206-.945c.306.03.607.074.907.125A1.23,1.23,0,0,0,19,2.265c.318.118.63.25.935.392a1.229,1.229,0,0,0,2.07,1.2c.276.2.546.4.806.619A1.229,1.229,0,0,0,24.5,6.171c.216.26.421.531.617.808a1.229,1.229,0,0,0,1.2,2.073c.141.306.274.617.391.936a1.23,1.23,0,0,0,.615,2.316q.084.5.131,1.006a1.229,1.229,0,0,0,0,2.4c-.032.34-.078.674-.135,1.005a1.23,1.23,0,0,0-.624,2.314c-.119.318-.251.629-.393.935a1.229,1.229,0,0,0-1.206,2.068c-.2.277-.4.546-.62.805a1.229,1.229,0,0,0-1.7,1.689c-.261.216-.532.419-.809.615a1.229,1.229,0,0,0-2.075,1.193c-.307.14-.618.273-.936.389a1.23,1.23,0,0,0-2.318.61q-.5.083-1.007.128a1.229,1.229,0,0,0-2.4-.008c-.339-.033-.673-.08-1.005-.138a1.229,1.229,0,0,0-2.312-.629c-.318-.119-.629-.251-.935-.394a1.229,1.229,0,0,0-2.065-1.21q-.414-.3-.8-.622a1.229,1.229,0,0,0-1.686-1.7c-.215-.261-.418-.533-.613-.81A1.229,1.229,0,0,0,2.626,19.87c-.14-.307-.271-.619-.387-.938a1.23,1.23,0,0,0-.607-2.319q-.082-.5-.125-1.006a1.23,1.23,0,0,0,.011-2.4c.033-.339.082-.673.14-1A1.229,1.229,0,0,0,2.292,9.9c.12-.317.252-.629.4-.934A1.229,1.229,0,0,0,3.9,6.9c.2-.275.405-.544.623-.8a1.229,1.229,0,0,0,1.7-1.682C6.489,4.2,6.761,4,7.039,3.8A1.229,1.229,0,0,0,9.118,2.617c.307-.139.619-.27.938-.385a1.227,1.227,0,0,0,1.4.621M14.483,0a1.229,1.229,0,0,0-1.216,1.068q-.5.045-.985.125A1.227,1.227,0,0,0,9.927,1.8c-.345.124-.681.264-1.012.415A1.227,1.227,0,0,0,6.8,3.424c-.3.208-.591.426-.872.658A1.226,1.226,0,0,0,4.2,5.793q-.353.417-.67.862a1.227,1.227,0,0,0-1.235,2.1q-.233.493-.427,1.008a1.227,1.227,0,0,0-.642,2.346c-.064.357-.116.719-.151,1.084a1.227,1.227,0,0,0-.012,2.433q.046.55.136,1.086a1.227,1.227,0,0,0,.615,2.353c.125.345.266.681.418,1.012a1.226,1.226,0,0,0,1.209,2.111c.209.3.428.591.659.871a1.227,1.227,0,0,0,1.715,1.727q.417.352.863.669a1.226,1.226,0,0,0,2.1,1.23q.494.232,1.009.425a1.227,1.227,0,0,0,2.347.638c.357.063.718.114,1.084.148a1.229,1.229,0,0,0,1.212,1.071h.006A1.229,1.229,0,0,0,15.648,27.9q.55-.048,1.086-.138a1.227,1.227,0,0,0,2.352-.619c.345-.126.681-.267,1.011-.42a1.227,1.227,0,0,0,2.11-1.213c.3-.21.59-.429.869-.661A1.226,1.226,0,0,0,24.8,23.134c.234-.278.456-.568.667-.865a1.228,1.228,0,0,0,1.539-.513.074.074,0,0,0,.005-.01l1.666.818a1.215,1.215,0,0,0,2.146,1.053l.719.353a1.192,1.192,0,0,0-.05.326,1.214,1.214,0,0,0,.242.725h0a1.205,1.205,0,0,0,.1.121l1.553,1.842,1.655-3.852-2.332-.057a1.216,1.216,0,0,0-.975.493l-.719-.353a1.194,1.194,0,0,0,.05-.326,1.217,1.217,0,0,0-2.2-.727l-1.716-.843a1.235,1.235,0,0,0-.465-1.152c.154-.329.3-.666.424-1.009a1.227,1.227,0,0,0,.632-2.349c.062-.357.112-.719.146-1.085a1.227,1.227,0,0,0,0-2.433q-.048-.55-.141-1.085a1.227,1.227,0,0,0-.623-2.351c-.126-.345-.269-.68-.422-1.011A1.226,1.226,0,0,0,25.5,6.738c-.21-.3-.43-.589-.663-.868a1.227,1.227,0,0,0-1.72-1.722c-.279-.233-.569-.454-.866-.665a1.227,1.227,0,0,0-2.1-1.222c-.33-.153-.666-.3-1.01-.423a1.227,1.227,0,0,0-2.35-.627c-.324-.056-.652-.1-.984-.135A1.229,1.229,0,0,0,14.592,0c-.019,0-.037,0-.055.005S14.5,0,14.483,0Z" transform="translate(0)" fill="#acb0b6"/>
</svg>
