<svg xmlns="http://www.w3.org/2000/svg" width="21.464" height="21.464" viewBox="0 0 21.464 21.464">
  <path id="Path_410" data-name="Path 410" d="M568.311,90.591a.61.61,0,0,1-.185-.449.6.6,0,0,1,.185-.446.622.622,0,0,1,.45-.181h5.975a.618.618,0,0,1,.449.181.593.593,0,0,1,.187.446.638.638,0,0,1-.636.636h-5.975A.61.61,0,0,1,568.311,90.591Zm7.316,7.251a8.457,8.457,0,0,1-4.452-4.466,8.4,8.4,0,0,1,0-6.469,8.471,8.471,0,0,1,4.452-4.466,8.382,8.382,0,0,1,6.462,0,8.471,8.471,0,0,1,4.452,4.466,8.4,8.4,0,0,1,0,6.469,8.457,8.457,0,0,1-4.452,4.466,8.364,8.364,0,0,1-6.462,0Zm5.909-1.319a6.772,6.772,0,0,0,2.176-1.475,7.068,7.068,0,0,0,1.464-7.606,6.954,6.954,0,0,0-1.464-2.2,6.829,6.829,0,0,0-9.709,0,6.949,6.949,0,0,0-1.464,2.2A6.992,6.992,0,0,0,574,95.048a6.928,6.928,0,0,0,7.533,1.475ZM578.408,86.47a.611.611,0,0,1-.185-.45V80.046a.633.633,0,0,1,.636-.636.6.6,0,0,1,.446.185.619.619,0,0,1,.181.45v5.974a.619.619,0,0,1-.181.45.6.6,0,0,1-.446.185A.614.614,0,0,1,578.408,86.47Zm0,14.219a.614.614,0,0,1-.185-.45V94.263a.6.6,0,0,1,.185-.446.621.621,0,0,1,.45-.181.617.617,0,0,1,.627.627v5.975a.622.622,0,0,1-.181.45.6.6,0,0,1-.446.185A.614.614,0,0,1,578.408,100.689Zm4.121-10.1a.611.611,0,0,1-.185-.449.6.6,0,0,1,.185-.446.624.624,0,0,1,.45-.181h5.975a.622.622,0,0,1,.45.181.6.6,0,0,1,.185.446.635.635,0,0,1-.636.636h-5.975A.612.612,0,0,1,582.529,90.591Z" transform="translate(-568.126 -79.41)" fill="none"/>
</svg>
